<!--?xml version="1.0" encoding="utf-8"?-->
<!-- Generator: Adobe Illustrator 18.0.0, SVG Export Plug-In . SVG Version: 6.00 Build 0)  -->

<svg version="1.1" id="_x31_0" xmlns="http://www.w3.org/2000/svg" xmlns:xlink="http://www.w3.org/1999/xlink" x="0px" y="0px" viewBox="0 0 512 512" style="width: 128px; height: 128px; opacity: 1;" xml:space="preserve">
<style type="text/css">
	.st0{fill:#374149;}
</style>
<g>
	<path class="st0" d="M256,0C114.617,0,0,114.614,0,256s114.617,256,256,256s256-114.614,256-256S397.383,0,256,0z M256,453.484
		c-108.894,0-197.484-88.59-197.484-197.484S147.106,58.516,256,58.516S453.484,147.106,453.484,256S364.894,453.484,256,453.484z" style="fill: rgb(75, 75, 75);"></path>
	<path class="st0" d="M269.774,172.848c12.442,0,24.367,2.683,35.469,7.98l1.457,0.726c6.73,3.367,12.965,7.598,18.367,12.43
		l10.516,10.024l21.605-46.75l-6.492-5.074c-7.207-5.629-15.062-10.538-23.347-14.59c-17.973-8.789-37.348-13.25-57.574-13.25
		c-54.157,0-102.141,32.476-122.242,82.73c-1.766,4.375-3.254,8.863-4.531,13.414h-39.531l-12.855,27.715h47.773
		c-0.148,2.602-0.273,5.203-0.273,7.797c0,2.023,0.07,4.047,0.164,6.062h-15.062l-12.817,27.719h32.156
		c2.238,8.469,5.282,16.702,9.176,24.519c13.653,27.683,36.734,49.778,64.977,62.207c8.347,3.703,17.195,6.531,26.274,8.402
		c8.742,1.824,17.758,2.746,26.793,2.746c15.461,0,30.648-2.672,45.152-7.945c7.898-2.894,15.496-6.528,22.582-10.805l5.023-3.031
		V302.39l-17.324,15.504c-5.555,4.965-11.782,9.188-18.527,12.558c-11.481,5.774-23.898,8.699-36.906,8.699
		c-3.946,0-7.59-0.262-11.29-0.816c-7.43-0.953-14.742-2.988-21.754-6.054c-14.066-6.094-26.164-15.969-35.012-28.586
		c-3.094-4.371-5.679-9.039-7.847-13.914h96.238l12.82-27.719H186.844c-0.145-2.008-0.223-4.031-0.223-6.062
		c0-2.61,0.122-5.211,0.367-7.797h125.363l12.856-27.715H194.668c0.722-1.519,1.449-3.035,2.27-4.519
		C211.578,189.371,239.484,172.848,269.774,172.848z" style="fill: rgb(75, 75, 75);"></path>
</g>
</svg>
