<?xml version="1.0" encoding="utf-8"?>
<!-- Svg Vector Icons : http://www.onlinewebfonts.com/icon -->
<!DOCTYPE svg PUBLIC "-//W3C//DTD SVG 1.1//EN" "http://www.w3.org/Graphics/SVG/1.1/DTD/svg11.dtd">
<svg version="1.1" xmlns="http://www.w3.org/2000/svg" xmlns:xlink="http://www.w3.org/1999/xlink" x="0px" y="0px" viewBox="0 0 1000 1000" enable-background="new 0 0 1000 1000" xml:space="preserve">
<metadata> Svg Vector Icons : http://www.onlinewebfonts.com/icon </metadata>
<g><g transform="translate(0.000000,511.000000) scale(0.100000,-0.100000)"><path d="M4511.9,5006c-1105.5-117.3-2119.5-588.5-2906.8-1346C823.7,2908.4,330.6,1981.9,141.8,904.2C104,689.5,100,582.2,100,109c0-614.4,23.9-815.2,155.1-1298.3C714.4-2857.5,2030.6-4175.7,3694.7-4633C4185.8-4766.2,4388.6-4792,4999-4792c483.1,0,576.6,6,801.2,45.7c819.2,147.1,1519,451.3,2179.1,944.4c244.5,182.9,747.6,685.9,930.5,930.5c493.1,660.1,797.3,1360,944.4,2179.1C9894-467.6,9900-374.2,9900,109c0,610.4-25.9,813.2-159.1,1304.3c-457.3,1664.1-1775.5,2980.4-3443.6,3439.6c-445.4,121.3-672,151.1-1218.8,157.1C4810.1,5013.9,4555.6,5011.9,4511.9,5006z M5358.9,3747.4c819.1-83.5,1564.7-429.5,2163.2-1004.1c632.2-606.4,1004.1-1352,1105.4-2216.9c37.8-312.1,37.8-520.9,0-837c-99.4-853-477.2-1610.5-1105.4-2214.9c-586.5-562.7-1300.3-900.7-2103.6-994.1c-316.1-37.8-524.9-37.8-837,0c-1083.6,127.3-2016.1,703.8-2634.4,1622.4c-135.2,200.8-324.1,578.6-405.6,815.2C1328.7-463.6,1287,256.1,1430.1,896.3c248.5,1103.5,986.2,2028,2008.1,2515.1C4040.7,3697.7,4702.8,3813,5358.9,3747.4z"/><path d="M4688.8,3023.7c-33.8-25.9-39.8-61.6-47.7-306.2c-7.9-232.6-15.9-284.3-45.7-318.1c-21.9-23.9-119.3-73.6-218.7-111.3c-347.9-135.2-606.4-357.9-735.6-632.3c-222.7-473.2-161-968.3,167-1318.2c206.8-220.7,427.5-353.9,902.7-546.8c336-135.2,497.1-218.7,600.4-306.2c155.1-135.2,204.8-330.1,127.2-499.1c-99.4-218.7-427.5-340-785.3-288.3c-244.6,33.8-515,111.4-703.8,198.8c-177,83.5-244.6,95.4-278.4,53.7c-27.8-31.8-177-528.9-194.9-642.2c-11.9-79.5-7.9-91.5,47.7-143.2c105.4-99.4,475.2-224.7,837-282.3c210.8-35.8,220.7-47.7,220.7-326.1c0-381.7,15.9-395.7,415.5-385.7c344,7.9,328.1-9.9,340,371.8c11.9,347.9,15.9,355.9,216.7,421.5c246.5,79.5,397.7,173,578.6,355.9c308.2,306.2,437.4,672,377.8,1065.7c-53.7,357.9-248.5,682-534.8,890.7c-115.3,85.5-431.5,242.6-721.7,361.9c-371.8,151.1-548.7,258.5-640.2,383.7c-133.2,180.9-51.7,419.5,178.9,522.9c230.6,101.4,721.7,53.7,1085.6-105.4c161-69.6,224.7-73.6,262.5-11.9c31.8,49.7,190.9,586.5,190.9,644.2c0,19.9-11.9,49.7-25.9,67.6c-57.7,77.5-381.7,192.9-682,244.6c-232.6,41.8-246.5,55.7-246.5,298.2c0,228.7-25.9,326.1-91.5,349.9C5201.8,3063.5,4734.6,3057.5,4688.8,3023.7z"/></g></g>
</svg>