<svg enable-background="new 0 0 260.8 248.3" viewBox="0 0 260.8 248.3" xmlns="http://www.w3.org/2000/svg"><path d="m137.7 160.9-26.8-12.2 5.7 99.6z" fill="#005572"/><path d="m116.6 248.3-56.9-100.6 51.2 1z" fill="#0076a6"/><path d="m82.3 100.5-22.6 47.2 51.2 1z" fill="#009ee3"/><path d="m110.9 148.7-28.6-48.2h57.4z" fill="#008dbf"/><path d="m110.9 148.7 28.8-48.2-2 60.4z" fill="#0076a5"/><path d="m82.3 100.5-82.3 10.9 59.7 36.3z" fill="#36afe4"/><path d="m161.7 60.9-22 39.6h-57.4z" fill="#56b9e4"/><path d="m161.7 60.9-79.4 39.6 12-47.9z" fill="#7ccbf6"/><path d="m94.3 52.6-94.3 58.8 82.3-10.9z" fill="#57bae5"/><path d="m188.8 215.1-51.1-54.2 1.7-59.9z" fill="#00698c"/><path d="m188.8 215.1-49.4-114.1 49.4 12.1z" fill="#028cbf"/><path d="m215.9 185-27.1 30.1v-102z" fill="#0aa0cb"/><path d="m188.8 113.1 41.5 69.3-14.4 2.6z" fill="#55bde2"/><path d="m230.3 182.4-32.8-54.7h19.3z" fill="#77cef4"/><path d="m228.5 192.6-39.7 22.5 27.1-30.1z" fill="#0076a6"/><path d="m194.2 81.3-54.8 19.7 29.1-52.2z" fill="#79cdf3"/><path d="m188.8 113.1-49.1-12.2 54.5-19.6z" fill="#0c9fca"/><path d="m219.1 123.3-30.3-10.2 5.4-31.8z" fill="#8bd8fd"/><path d="m168.5 48.8 25.7 32.5 2.7-47.9z" fill="#5eb6e5"/><path d="m237.2 29.2-40.3 4.2-2.7 47.9z" fill="#79cdf3"/><path d="m255.6 32.3-39.6 22.6 21.2-25.7z" fill="#01b0e1"/><path d="m255.6 32.3-18.4-3.1 23.6-29.2z" fill="#75d3ea"/></svg>