<svg id="Layer_1" xmlns="http://www.w3.org/2000/svg" viewBox="0 0 109.8 109.1" width="2500" height="2484"><style>.st0{fill:#2aba4c}.st1{fill:#050629}.st2{fill:#bbb}</style><path class="st0" d="M54.6 0c14.9.2 30 6.1 40.3 17.1 9.3 10.1 15.3 23.7 15 37.6-.2 0-55.2-.5-55.2-.5V37.9H90c-6.1-13.5-20.5-22-35.1-22-.2-5.3-.3-10.6-.3-15.9z"/><path class="st1" d="M29.5 2.8c7.1-3.1 15.7 3.7 14.2 11.3-.8 7.8-11.4 11.8-17.1 6.4-6.3-4.6-4.4-15.3 2.9-17.7zM.1 51c.7-13.2 6.6-25.9 16-35.1 3.8 3.8 7.5 7.6 11.2 11.4-7 7.9-11.3 18.2-11.2 28.8.4 7.3 2.8 14.7 7.2 20.6 5.6 7.8 14.1 13.1 23.3 15.8 0 5.3-.2 10.6-.2 15.8-13.8-2.6-27-9.8-35.5-21.3C3.1 76.9-.5 63.7.1 51z"/><path class="st2" d="M93.3 58.6c5.3-1.3 16.4-3.9 16.5-3.9-.1 13-4.6 26-13.3 35.8-10.4 11.8-26 18.5-41.7 18.5V93.2c9.6-.1 19.3-3.3 26.2-10 7-6.3 10.6-15.5 12.3-24.6z"/></svg>