<svg xmlns="http://www.w3.org/2000/svg" viewBox="0 0 81.11 36.17"><path d="M0,.07H8.83l7.24,20.46L23.85.07h5.4L36.89,20.3,44.13.07H53L39.9,36H34.18l-7.67-20.5L18.61,36H13Z" fill="#151515"/><path d="M66.05,13.35l-.66,1.3a1.91,1.91,0,0,0-.16.36,1.09,1.09,0,0,0,0,.25.81.81,0,0,0,.25.59.79.79,0,0,0,.61.25.81.81,0,0,0,.59-.24.82.82,0,0,0,.25-.6.86.86,0,0,0-.24-.62.83.83,0,0,0-.43-.23l.4-.77Zm.2,1.9a.25.25,0,0,1-.06.17.19.19,0,0,1-.29,0,.24.24,0,0,1,0-.32A.15.15,0,0,1,66,15a.18.18,0,0,1,.15.07A.21.21,0,0,1,66.25,15.25ZM69.19,3.37,68.12,5l0,0v.55h1.05V6h.64v-.5H70V4.92h-.21V3.37Zm-.3,1.55.26-.39v.39Zm-13.67,21,.87-1.79h-.94v-.63h1.77v.38l-1.13,2.31Zm11,6.22a.32.32,0,0,0,.07-.22.27.27,0,0,0-.07-.2.2.2,0,0,0-.27-.05.31.31,0,0,0-.11.09l0,0-.52-.12.32-1.5h1.3v.62h-.8l0,.22h0a.79.79,0,0,1,.61.25.84.84,0,0,1,.25.63.88.88,0,0,1-.27.66.89.89,0,0,1-.65.27.88.88,0,0,1-.91-.72l0-.12h.66l0,.05a.36.36,0,0,0,.11.13A.27.27,0,0,0,66.22,32.1Zm-.31-12.9a.82.82,0,0,0,.25-.61.82.82,0,0,0-.68-.84l.4-.77-.56-.29L64.66,18a1.94,1.94,0,0,0-.16.37.69.69,0,0,0,0,.25.8.8,0,0,0,.24.58.83.83,0,0,0,.61.26A.81.81,0,0,0,65.91,19.2Zm-.81-.61a.25.25,0,0,1,.06-.17.2.2,0,0,1,.14-.06.16.16,0,0,1,.15.07.22.22,0,0,1,0,.32.17.17,0,0,1-.28,0A.19.19,0,0,1,65.1,18.59Zm14,7.47v-.49h.22V25h-.22V23.4h-.6L77.46,25l0,0v.56h1v.49ZM78.23,25l.26-.39V25ZM64,19.34a.77.77,0,0,0,.32-.3.82.82,0,0,0,.12-.43,1,1,0,0,0-.1-.41.74.74,0,0,0-.2-.23.53.53,0,0,0,.12-.2.6.6,0,0,0,.06-.27.76.76,0,0,0-.1-.39.81.81,0,0,0-.29-.29,1,1,0,0,0-.84,0,.74.74,0,0,0-.3.28.76.76,0,0,0-.1.39.73.73,0,0,0,.06.3,1.74,1.74,0,0,0,.11.18.92.92,0,0,0-.19.25.83.83,0,0,0-.09.39.93.93,0,0,0,.11.44.84.84,0,0,0,.32.3,1.21,1.21,0,0,0,.5.09A1,1,0,0,0,64,19.34Zm-.38-1.69a.16.16,0,0,1-.24,0,.17.17,0,0,1,0-.24.16.16,0,0,1,.11-.05.17.17,0,0,1,.13.05.14.14,0,0,1,0,.11A.17.17,0,0,1,63.57,17.65Zm-.32.75a.32.32,0,0,1,.21-.08.28.28,0,0,1,.2.08.2.2,0,0,1,.08.17.19.19,0,0,1-.07.17.33.33,0,0,1-.42,0,.2.2,0,0,1-.08-.17A.23.23,0,0,1,63.25,18.4Zm6.3,14.33v-2H69l.38-.62h.84v2.59Zm-8-1.81a.69.69,0,0,0-.21.51.76.76,0,0,0,.09.38.81.81,0,0,0,.26.26.82.82,0,0,0,.7,0,1,1,0,0,0,.33-.25l.07-.07.45.47-.07.07a2,2,0,0,1-.53.38,1.5,1.5,0,0,1-.58.1,1.36,1.36,0,0,1-1.19-2,1.24,1.24,0,0,1,.5-.49,1.45,1.45,0,0,1,1.82.34l.06.07-.46.43L62.74,31a.89.89,0,0,0-.66-.31A.73.73,0,0,0,61.57,30.92Zm2.61,1.87a.85.85,0,0,0,.6-.24.88.88,0,0,0,0-1.21.78.78,0,0,0-.43-.24l.4-.77-.57-.28-.66,1.29a3.8,3.8,0,0,0-.16.36,1.09,1.09,0,0,0,0,.25.85.85,0,0,0,.25.59A.79.79,0,0,0,64.18,32.79ZM64,31.94a.21.21,0,0,1,.06-.16.18.18,0,0,1,.14-.06.2.2,0,0,1,.15.06.21.21,0,0,1,.06.16.25.25,0,0,1-.06.17.2.2,0,0,1-.29,0A.25.25,0,0,1,64,31.94Zm6.94.61.87-1.79h-.94v-.62h1.77v.38l-1.13,2.31Zm-3-14.37a3.8,3.8,0,0,0,.16-.36,1.07,1.07,0,0,0,0-.25.84.84,0,0,0-.24-.59.81.81,0,0,0-.61-.25.84.84,0,0,0-.85.84.83.83,0,0,0,.25.61.78.78,0,0,0,.43.24l-.4.77.57.28Zm-.45-.6a.21.21,0,0,1-.06.16.2.2,0,0,1-.29,0,.23.23,0,0,1-.06-.16.25.25,0,0,1,.06-.17.2.2,0,0,1,.15-.06.2.2,0,0,1,.14.06A.25.25,0,0,1,67.42,17.58ZM64.35,15.4a.29.29,0,0,0,.08-.21.3.3,0,0,0-.08-.21.21.21,0,0,0-.27,0L64,15l0,0L63.41,15l.32-1.5H65v.62h-.81l0,.21h0a.83.83,0,0,1,.61.25.86.86,0,0,1,.25.64.92.92,0,0,1-.92.93,1,1,0,0,1-.59-.19.93.93,0,0,1-.32-.54l0-.12h.66l0,.06a.36.36,0,0,0,.11.13A.26.26,0,0,0,64.35,15.4Zm14.05,6a2.14,2.14,0,0,0,.11.76,1,1,0,0,0,.33.43.93.93,0,0,0,.51.14.87.87,0,0,0,.5-.14.94.94,0,0,0,.32-.44,2.79,2.79,0,0,0,0-1.55.83.83,0,0,0-.33-.44.89.89,0,0,0-1.22.22A1.91,1.91,0,0,0,78.4,21.45Zm.66,0a2.16,2.16,0,0,1,0-.51.34.34,0,0,1,.11-.2.18.18,0,0,1,.14-.06c.05,0,.12,0,.19.14a1.29,1.29,0,0,1,.09.6,1.26,1.26,0,0,1-.1.61c-.07.11-.13.12-.18.12a.22.22,0,0,1-.2-.13A1.19,1.19,0,0,1,79.06,21.46ZM56,6.68,55.31,8a2.24,2.24,0,0,0-.16.36.73.73,0,0,0,0,.25.84.84,0,0,0,.24.59.82.82,0,0,0,.61.25.81.81,0,0,0,.6-.24.8.8,0,0,0,.25-.6A.84.84,0,0,0,56.57,8a.78.78,0,0,0-.43-.24L56.53,7Zm.2,1.89a.24.24,0,0,1-.06.17.2.2,0,0,1-.29,0,.22.22,0,0,1-.07-.17.23.23,0,0,1,.06-.16.22.22,0,0,1,.3,0A.21.21,0,0,1,56.17,8.57Zm0,6.84a.22.22,0,0,0,.08-.18.25.25,0,0,0-.1-.2.58.58,0,0,0-.35-.09h-.1v-.58h.09a.82.82,0,0,0,.21,0,.22.22,0,0,0,.09-.07.16.16,0,0,0,0-.09.13.13,0,0,0,0-.09A.15.15,0,0,0,56,14a.21.21,0,0,0-.11,0,.23.23,0,0,0-.08.11l0,.06h-.62v-.11a.86.86,0,0,1,.22-.48.83.83,0,0,1,.62-.25.79.79,0,0,1,.56.21.66.66,0,0,1,.23.52.6.6,0,0,1-.23.48.65.65,0,0,1,.21.19.71.71,0,0,1,.15.44.83.83,0,0,1-.27.62,1,1,0,0,1-.68.25.87.87,0,0,1-.9-.88v-.1h.64v.08a.38.38,0,0,0,.1.22A.29.29,0,0,0,56.17,15.41ZM61.74,4.47a.59.59,0,0,0,.08-.25.22.22,0,0,0-.07-.16.24.24,0,0,0-.34,0,.43.43,0,0,0-.08.24V4.4h-.64V4.3A1,1,0,0,1,61,3.62a.88.88,0,0,1,.64-.25.9.9,0,0,1,.44.11.79.79,0,0,1,.3.3.73.73,0,0,1,.11.4,1.07,1.07,0,0,1-.13.5,2.15,2.15,0,0,1-.46.61l-.11.12h.72V6H60.63V5.67l.77-.79A2.3,2.3,0,0,0,61.74,4.47Zm.57,8.88-.66,1.3a2.92,2.92,0,0,0-.16.36,1.09,1.09,0,0,0,0,.25.85.85,0,0,0,.25.59.81.81,0,0,0,.61.25.82.82,0,0,0,.84-.84.86.86,0,0,0-.24-.62.83.83,0,0,0-.43-.23l.4-.77Zm.2,1.9a.25.25,0,0,1-.06.17.19.19,0,0,1-.29,0,.24.24,0,0,1,0-.32A.16.16,0,0,1,62.3,15a.18.18,0,0,1,.15.07A.21.21,0,0,1,62.51,15.25Zm-.93,11.46L60.92,28a2.24,2.24,0,0,0-.16.36.75.75,0,0,0,0,.26.85.85,0,0,0,.85.84.82.82,0,0,0,.6-.25.79.79,0,0,0,.25-.6.84.84,0,0,0-.24-.61.78.78,0,0,0-.43-.24l.39-.77Zm.2,1.89a.24.24,0,0,1-.06.17.2.2,0,0,1-.29,0,.22.22,0,0,1-.07-.17.23.23,0,0,1,.06-.16.2.2,0,0,1,.14-.06.21.21,0,0,1,.16.06A.23.23,0,0,1,61.78,28.6Zm-6.63-6.39a1,1,0,0,0,.32.43,1,1,0,0,0,.51.14.88.88,0,0,0,.51-.14,1,1,0,0,0,.32-.44,1.12,1.12,0,0,0,.07-.29v.32h1v.49h.64v-.49h.22v-.62h-.22V20.06H58l-1.06,1.57a1.34,1.34,0,0,0,0-.21,2.29,2.29,0,0,0-.11-.77,1,1,0,0,0-.33-.44.85.85,0,0,0-.51-.15.83.83,0,0,0-.71.37,1.82,1.82,0,0,0-.22,1A2.14,2.14,0,0,0,55.15,22.21Zm2.52-.6.26-.39v.39Zm-2-.15a2.05,2.05,0,0,1,.05-.51.34.34,0,0,1,.1-.2.2.2,0,0,1,.14-.06c.05,0,.12,0,.19.14a1.12,1.12,0,0,1,.1.6,1.24,1.24,0,0,1-.11.61.19.19,0,0,1-.18.12s-.12,0-.19-.13A1,1,0,0,1,55.69,21.46Zm5.89-4.77L60.92,18a1.94,1.94,0,0,0-.16.37.69.69,0,0,0,0,.25.8.8,0,0,0,.24.58.83.83,0,0,0,.61.26.81.81,0,0,0,.6-.24.82.82,0,0,0,.25-.61.85.85,0,0,0-.24-.61.83.83,0,0,0-.43-.23l.39-.77Zm.2,1.9a.21.21,0,0,1-.06.16.18.18,0,0,1-.29,0,.19.19,0,0,1-.07-.16.25.25,0,0,1,.06-.17.2.2,0,0,1,.14-.06.19.19,0,0,1,.16.07A.21.21,0,0,1,61.78,18.59ZM59.73,12.8l.66-1.3a2.24,2.24,0,0,0,.16-.36,1,1,0,0,0,0-.25.77.77,0,0,0-.25-.58.8.8,0,0,0-.61-.26.86.86,0,0,0-.6,1.46.83.83,0,0,0,.43.23l-.4.78Zm-.2-1.9a.21.21,0,0,1,.06-.16.19.19,0,0,1,.15-.07.17.17,0,0,1,.14.07.21.21,0,0,1,.06.16.25.25,0,0,1-.06.17.21.21,0,0,1-.29,0A.21.21,0,0,1,59.53,10.9Zm11.6,1.17a.23.23,0,0,0,.07-.18.25.25,0,0,0-.1-.2.58.58,0,0,0-.35-.09h-.1V11h.09A.52.52,0,0,0,71,11,.22.22,0,0,0,71,10.9a.16.16,0,0,0,0-.09.15.15,0,0,0,0-.09.19.19,0,0,0-.11,0,.21.21,0,0,0-.12,0,.28.28,0,0,0-.08.11l0,.07h-.62v-.11a.89.89,0,0,1,.22-.49.83.83,0,0,1,.62-.25.79.79,0,0,1,.56.21.68.68,0,0,1,.23.52.62.62,0,0,1-.1.35l-.13.14a.53.53,0,0,1,.21.18.72.72,0,0,1,.15.45.8.8,0,0,1-.27.61.93.93,0,0,1-.67.25.91.91,0,0,1-.64-.23.9.9,0,0,1-.27-.64v-.11h.64v.09a.35.35,0,0,0,.1.21A.3.3,0,0,0,71.13,12.07ZM56.92,8.59A.93.93,0,0,0,57,9a.84.84,0,0,0,.32.3,1.21,1.21,0,0,0,.5.09,1.13,1.13,0,0,0,.49-.09A.74.74,0,0,0,58.66,9a.82.82,0,0,0,.12-.43.79.79,0,0,0-.1-.4.91.91,0,0,0-.2-.24.92.92,0,0,0,.13-.19.87.87,0,0,0,0-.28.76.76,0,0,0-.1-.39.78.78,0,0,0-.29-.28,1,1,0,0,0-.84,0,.64.64,0,0,0-.29.27.77.77,0,0,0-.11.39.73.73,0,0,0,.06.3A.78.78,0,0,0,57.2,8,1.1,1.1,0,0,0,57,8.2.86.86,0,0,0,56.92,8.59Zm1-1a.17.17,0,0,1-.23,0,.17.17,0,0,1,0-.13.16.16,0,0,1,0-.12.15.15,0,0,1,.11,0,.17.17,0,0,1,.13,0,.17.17,0,0,1,0,.12A.19.19,0,0,1,58,7.64Zm-.11.67a.3.3,0,0,1,.21.07.24.24,0,0,1,.07.18.22.22,0,0,1-.07.17.35.35,0,0,1-.42,0,.21.21,0,0,1-.08-.17.25.25,0,0,1,.08-.17A.31.31,0,0,1,57.85,8.31Zm0,1.71-.66,1.29a2.24,2.24,0,0,0-.16.36.73.73,0,0,0,0,.25.84.84,0,0,0,.24.59.82.82,0,0,0,.61.25.81.81,0,0,0,.6-.24.8.8,0,0,0,.25-.6.84.84,0,0,0-.24-.61.78.78,0,0,0-.43-.24l.39-.77Zm.2,1.89a.25.25,0,0,1-.06.17.2.2,0,0,1-.29,0,.22.22,0,0,1-.07-.17.21.21,0,0,1,.06-.16.2.2,0,0,1,.14-.06.21.21,0,0,1,.22.22Zm1.83,9.25a.56.56,0,0,0,.08-.25.22.22,0,0,0-.07-.16.25.25,0,0,0-.34,0,.43.43,0,0,0-.08.24v.09h-.64V21a1,1,0,0,1,.28-.67.87.87,0,0,1,.64-.26.9.9,0,0,1,.44.11.79.79,0,0,1,.3.3.77.77,0,0,1,.12.4,1.16,1.16,0,0,1-.14.51A2.28,2.28,0,0,1,60,22l-.11.12h.72v.62H58.76v-.36l.77-.78A2.68,2.68,0,0,0,59.87,21.16ZM59.71,6.68,59.05,8a2.24,2.24,0,0,0-.16.36.73.73,0,0,0,0,.25.84.84,0,0,0,.24.59.82.82,0,0,0,.61.25.81.81,0,0,0,.6-.24.8.8,0,0,0,.25-.6A.84.84,0,0,0,60.31,8a.78.78,0,0,0-.43-.24L60.27,7Zm.2,1.89a.24.24,0,0,1-.06.17.2.2,0,0,1-.29,0,.22.22,0,0,1-.07-.17.23.23,0,0,1,.06-.16.2.2,0,0,1,.14-.06.21.21,0,0,1,.22.22ZM57.09,19.2,58,17.41H57v-.62h1.77v.38l-1.13,2.3Zm1.75-4.46a1.31,1.31,0,0,1,.18-.69,1.22,1.22,0,0,1,.5-.48,1.47,1.47,0,0,1,1.31-.05,1.58,1.58,0,0,1,.51.38l.06.07-.46.44-.07-.07a.89.89,0,0,0-.66-.32.72.72,0,0,0-.72.72.79.79,0,0,0,.09.38.69.69,0,0,0,.26.25.82.82,0,0,0,.7,0,1.1,1.1,0,0,0,.33-.25l.07-.07.45.47-.07.06a1.65,1.65,0,0,1-.53.38,1.5,1.5,0,0,1-1.56-.27A1.3,1.3,0,0,1,58.84,14.74Zm2.83,8h.64v-.49h.22v-.62h-.22V20.06h-.6l-1.07,1.59,0,0v.55h1.05Zm-.26-1.11.26-.39v.39Zm-4.19-5.76a.82.82,0,0,0,.61.25.84.84,0,0,0,.85-.84.86.86,0,0,0-.24-.62.83.83,0,0,0-.43-.23l.39-.77-.56-.29-.66,1.3A1.91,1.91,0,0,0,57,15a.73.73,0,0,0,0,.25A.84.84,0,0,0,57.22,15.85Zm.4-.6a.21.21,0,0,1,.06-.16.17.17,0,0,1,.14-.07.19.19,0,0,1,.16.07.21.21,0,0,1,.06.16.25.25,0,0,1-.06.17.19.19,0,0,1-.29,0A.19.19,0,0,1,57.62,15.25ZM61.09,26a1.06,1.06,0,0,0,.5.1,1.15,1.15,0,0,0,.49-.1.77.77,0,0,0,.32-.3.86.86,0,0,0,.12-.44.79.79,0,0,0-.1-.4.91.91,0,0,0-.2-.24.72.72,0,0,0,.13-.19.82.82,0,0,0,0-.28.76.76,0,0,0-.1-.39A.86.86,0,0,0,62,23.5a1,1,0,0,0-.84,0,.61.61,0,0,0-.29.28.74.74,0,0,0-.11.39.8.8,0,0,0,.06.3,1.74,1.74,0,0,0,.11.18.88.88,0,0,0-.19.24.86.86,0,0,0-.09.39.93.93,0,0,0,.11.44A.71.71,0,0,0,61.09,26Zm.61-1.69a.17.17,0,0,1-.29-.13.18.18,0,0,1,.05-.12.15.15,0,0,1,.11,0,.17.17,0,0,1,.13,0,.17.17,0,0,1,0,.12A.17.17,0,0,1,61.7,24.33Zm-.11.67a.32.32,0,0,1,.2.07.22.22,0,0,1,.08.18.21.21,0,0,1-.07.17.35.35,0,0,1-.42,0,.22.22,0,0,1-.08-.18.21.21,0,0,1,.08-.16A.32.32,0,0,1,61.59,25Zm-2.38,4.31a.88.88,0,0,0,.51.15.81.81,0,0,0,.51-.15,1,1,0,0,0,.32-.43,2.31,2.31,0,0,0,.11-.78,2.21,2.21,0,0,0-.11-.77.9.9,0,0,0-.33-.44.85.85,0,0,0-.51-.15.83.83,0,0,0-.71.37,1.8,1.8,0,0,0-.22,1,2.25,2.25,0,0,0,.11.77A.94.94,0,0,0,59.21,29.31Zm.22-1.18a2,2,0,0,1,0-.5.41.41,0,0,1,.1-.21.24.24,0,0,1,.14-.05c.05,0,.12,0,.19.13a1.17,1.17,0,0,1,.1.61,1.27,1.27,0,0,1-.11.61.21.21,0,0,1-.18.12s-.12,0-.19-.13A1,1,0,0,1,59.43,28.13ZM55.15,12.2a1,1,0,0,0,.32.42.87.87,0,0,0,.51.14.81.81,0,0,0,.51-.14,1,1,0,0,0,.32-.43,2.31,2.31,0,0,0,.11-.78,2.31,2.31,0,0,0-.11-.78,1,1,0,0,0-.33-.44.93.93,0,0,0-.51-.14.81.81,0,0,0-.71.37,1.8,1.8,0,0,0-.22,1A2.25,2.25,0,0,0,55.15,12.2Zm.54-.76a2,2,0,0,1,.05-.5.41.41,0,0,1,.1-.21.24.24,0,0,1,.14-.05c.05,0,.12,0,.19.13a1.12,1.12,0,0,1,.1.6,1.31,1.31,0,0,1-.11.62.19.19,0,0,1-.18.11.21.21,0,0,1-.19-.12A1.08,1.08,0,0,1,55.69,11.44Zm-.54,7.43a1,1,0,0,0,.32.43,1,1,0,0,0,.51.14.88.88,0,0,0,.51-.14,1,1,0,0,0,.32-.44,2.79,2.79,0,0,0,0-1.55,1,1,0,0,0-.33-.44.85.85,0,0,0-.51-.14.83.83,0,0,0-.71.36,1.82,1.82,0,0,0-.22,1A2.14,2.14,0,0,0,55.15,18.87Zm.54-.75a2.05,2.05,0,0,1,.05-.51.34.34,0,0,1,.1-.2.19.19,0,0,1,.14-.05c.05,0,.12,0,.19.13a1.12,1.12,0,0,1,.1.6,1.24,1.24,0,0,1-.11.61.19.19,0,0,1-.18.12s-.12,0-.19-.13A1,1,0,0,1,55.69,18.12ZM61.6,9.46l.66-1.3a3.8,3.8,0,0,0,.16-.36,1,1,0,0,0,0-.25A.81.81,0,0,0,62.21,7a.8.8,0,0,0-.61-.26.84.84,0,0,0-.84.85.85.85,0,0,0,.24.61.76.76,0,0,0,.43.23l-.4.78Zm-.2-1.9a.23.23,0,0,1,.06-.16.19.19,0,0,1,.15-.07.17.17,0,0,1,.14.07.23.23,0,0,1,.06.16.25.25,0,0,1-.06.17.2.2,0,0,1-.29,0A.21.21,0,0,1,61.4,7.56ZM59,19.2l.87-1.79h-.94v-.62h1.77v.38l-1.13,2.3Zm1.8-9.09h1.77v.38L61.39,12.8l-.56-.28.87-1.79h-.94Zm-2,19.29H56.89V29l.77-.79a2.3,2.3,0,0,0,.34-.41.59.59,0,0,0,.08-.25.19.19,0,0,0-.07-.16.24.24,0,0,0-.34,0,.43.43,0,0,0-.08.24v.09H57v-.1a1,1,0,0,1,.28-.68.94.94,0,0,1,1.08-.14.72.72,0,0,1,.3.3.75.75,0,0,1,.12.4,1.12,1.12,0,0,1-.14.5,2.3,2.3,0,0,1-.46.61l-.11.12h.72Zm0-5.56-1.13,2.31-.56-.27L58,24.09H57v-.63h1.77Zm.93-.47-.66,1.29a2.24,2.24,0,0,0-.16.36.78.78,0,0,0,0,.26.82.82,0,0,0,.24.58.83.83,0,0,0,.61.26.82.82,0,0,0,.6-.25.79.79,0,0,0,.25-.6.84.84,0,0,0-.24-.61.78.78,0,0,0-.43-.24l.39-.77Zm.2,1.89a.24.24,0,0,1-.06.17.2.2,0,0,1-.29,0,.21.21,0,0,1-.07-.17.23.23,0,0,1,.06-.16.2.2,0,0,1,.14-.06.21.21,0,0,1,.16.06A.25.25,0,0,1,59.91,25.26ZM56.87,6H55V5.67l.77-.79a2.3,2.3,0,0,0,.34-.41.59.59,0,0,0,.08-.25.19.19,0,0,0-.07-.16.24.24,0,0,0-.34,0,.43.43,0,0,0-.08.24V4.4h-.64V4.3a1,1,0,0,1,.28-.68.94.94,0,0,1,1.08-.14.79.79,0,0,1,.3.3.75.75,0,0,1,.12.4,1.08,1.08,0,0,1-.14.5,2.15,2.15,0,0,1-.46.61l-.11.12h.72ZM58,.72H57V.09h1.77V.47L57.65,2.78l-.56-.27Zm-1.87,0h-.94V.09h1.77V.47L55.78,2.78l-.56-.27Zm1.1,31.84a.9.9,0,0,1-.27-.64v-.11h.64v.09a.35.35,0,0,0,.1.21.29.29,0,0,0,.38,0,.21.21,0,0,0,.08-.18.25.25,0,0,0-.1-.2.58.58,0,0,0-.35-.09h-.1v-.58h.09a.52.52,0,0,0,.21,0,.22.22,0,0,0,.09-.07.16.16,0,0,0,0-.09.15.15,0,0,0,0-.09.2.2,0,0,0-.12,0,.21.21,0,0,0-.11,0,.28.28,0,0,0-.08.11l0,.07H57v-.11a.89.89,0,0,1,.22-.49.83.83,0,0,1,.62-.25.79.79,0,0,1,.56.21.71.71,0,0,1,.23.52.62.62,0,0,1-.1.35.86.86,0,0,1-.13.14.63.63,0,0,1,.21.18.72.72,0,0,1,.15.45.79.79,0,0,1-.27.61,1,1,0,0,1-.68.25A.9.9,0,0,1,57.19,32.56ZM56,32.79a.81.81,0,0,0,.6-.24.8.8,0,0,0,.25-.6.84.84,0,0,0-.24-.61.78.78,0,0,0-.43-.24l.39-.77L56,30.05l-.66,1.29a2.24,2.24,0,0,0-.16.36.73.73,0,0,0,0,.25.84.84,0,0,0,.24.59A.82.82,0,0,0,56,32.79Zm-.21-.85a.21.21,0,0,1,.06-.16.22.22,0,0,1,.3,0,.21.21,0,0,1,.06.16.25.25,0,0,1-.06.17.2.2,0,0,1-.29,0A.22.22,0,0,1,55.75,31.94Zm-.6,1.54h1.77v.38l-1.13,2.31-.56-.28.87-1.79h-.94ZM59.7,2.75a.79.79,0,0,0,.6-.25.79.79,0,0,0,.25-.6.84.84,0,0,0-.24-.61.76.76,0,0,0-.43-.23l.39-.78L59.71,0l-.66,1.29a1.94,1.94,0,0,0-.16.37.69.69,0,0,0,0,.25.82.82,0,0,0,.24.58A.83.83,0,0,0,59.7,2.75Zm-.21-.85a.24.24,0,0,1,.06-.17.2.2,0,0,1,.14-.06.21.21,0,0,1,.16.06.25.25,0,0,1,.06.17.23.23,0,0,1-.06.16.19.19,0,0,1-.29,0A.2.2,0,0,1,59.49,1.9ZM55.35,29.26a.93.93,0,0,1-.32-.53l0-.12h.66l0,.05a.36.36,0,0,0,.11.13.26.26,0,0,0,.33,0,.28.28,0,0,0,.08-.21.28.28,0,0,0-.07-.21.21.21,0,0,0-.27-.05.47.47,0,0,0-.12.09l0,0-.53-.11.33-1.51h1.3v.62H56l-.05.22h0a.81.81,0,0,1,.61.25.88.88,0,0,1,.25.64.92.92,0,0,1-.92.93A.92.92,0,0,1,55.35,29.26ZM58.68,4a.9.9,0,0,0-.33-.44.85.85,0,0,0-.51-.15.83.83,0,0,0-.71.37,1.8,1.8,0,0,0-.22,1,2.17,2.17,0,0,0,.11.77,1,1,0,0,0,.32.43,1,1,0,0,0,.51.14A.88.88,0,0,0,58.36,6a1,1,0,0,0,.32-.44,1.77,1.77,0,0,0,.07-.29v.31h1V6h.64v-.5h.22V4.92h-.22V3.37h-.6L58.78,4.94a1.48,1.48,0,0,0,0-.21A2.21,2.21,0,0,0,58.68,4Zm-.54.78a1.27,1.27,0,0,1-.11.61.21.21,0,0,1-.18.12c-.05,0-.12,0-.19-.13a1,1,0,0,1-.1-.58,2,2,0,0,1,0-.5.41.41,0,0,1,.1-.21.24.24,0,0,1,.14,0S58,4,58,4.13A1.17,1.17,0,0,1,58.14,4.74Zm1.4.18.26-.39v.39Zm6.7.44,0-.12h.66l0,0a.31.31,0,0,0,.11.14.27.27,0,0,0,.33,0,.28.28,0,0,0,.08-.21A.28.28,0,0,0,67.36,5a.21.21,0,0,0-.27,0A.47.47,0,0,0,67,5l0,0-.52-.11.33-1.51H68v.62h-.8l0,.22h0a.81.81,0,0,1,.61.25.89.89,0,0,1,.24.64.93.93,0,0,1-.26.66.89.89,0,0,1-.65.27.92.92,0,0,1-.59-.2A.9.9,0,0,1,66.24,5.36ZM67.31.72h-1V.09h1.77V.47L67,2.78l-.56-.27Zm-2.14,1-.4.77.57.28L66,1.49a3.8,3.8,0,0,0,.16-.36,1.09,1.09,0,0,0,0-.25A.83.83,0,0,0,66,.29.82.82,0,0,0,65.34,0a.86.86,0,0,0-.6.25.82.82,0,0,0-.25.6.85.85,0,0,0,.25.61A.78.78,0,0,0,65.17,1.73Zm0-.84A.24.24,0,0,1,65.2.72a.2.2,0,0,1,.15-.06.2.2,0,0,1,.14.06.25.25,0,0,1,.06.17.23.23,0,0,1-.06.16.2.2,0,0,1-.29,0A.25.25,0,0,1,65.14.89Zm3,.76V2.2h1.05v.49h.64V2.2H70V1.58h-.21V0h-.6L68.12,1.62Zm.79-.07.26-.39v.39ZM63.44,2.75A.79.79,0,0,0,64,2.5a.79.79,0,0,0,.25-.6.84.84,0,0,0-.24-.61.76.76,0,0,0-.43-.23L64,.28,63.45,0l-.66,1.29a1.94,1.94,0,0,0-.16.37.69.69,0,0,0,0,.25.82.82,0,0,0,.24.58A.83.83,0,0,0,63.44,2.75Zm-.21-.85a.24.24,0,0,1,.06-.17.2.2,0,0,1,.14-.06.21.21,0,0,1,.16.06.25.25,0,0,1,.06.17.23.23,0,0,1-.06.16.19.19,0,0,1-.29,0A.2.2,0,0,1,63.23,1.9Zm-2.14.75a1.06,1.06,0,0,0,.5.1,1.15,1.15,0,0,0,.49-.1.77.77,0,0,0,.32-.3.86.86,0,0,0,.12-.44.79.79,0,0,0-.1-.4.91.91,0,0,0-.2-.24.72.72,0,0,0,.13-.19.82.82,0,0,0,0-.28.78.78,0,0,0-.1-.39A.86.86,0,0,0,62,.13a1,1,0,0,0-.84,0,.66.66,0,0,0-.29.28.74.74,0,0,0-.11.39.8.8,0,0,0,.06.3,1.74,1.74,0,0,0,.11.18.88.88,0,0,0-.19.24.86.86,0,0,0-.09.39,1,1,0,0,0,.11.45A.74.74,0,0,0,61.09,2.65ZM61.7,1a.16.16,0,0,1-.24,0,.17.17,0,0,1-.05-.12.19.19,0,0,1,.05-.13.15.15,0,0,1,.11,0,.14.14,0,0,1,.13,0,.13.13,0,0,1,0,.11A.17.17,0,0,1,61.7,1Zm-.11.67a.32.32,0,0,1,.2.07.22.22,0,0,1,.08.18.21.21,0,0,1-.07.17.35.35,0,0,1-.42,0,.22.22,0,0,1-.08-.18.23.23,0,0,1,.08-.16A.32.32,0,0,1,61.59,1.63Zm2.59,1.74h-.6L62.51,5l0,0v.55h1V6h.64v-.5h.22V4.92h-.22Zm-.9,1.55.26-.39v.39Zm1.89.15-.4.77.57.28L66,4.83c.08-.17.13-.28.16-.36a1.09,1.09,0,0,0,0-.26A.83.83,0,0,0,66,3.63a.85.85,0,0,0-1.46.59.85.85,0,0,0,.25.61A.78.78,0,0,0,65.17,5.07Zm0-.85a.23.23,0,0,1,.06-.16A.2.2,0,0,1,65.35,4a.2.2,0,0,1,.14.06.25.25,0,0,1,.06.17.25.25,0,0,1-.06.16.2.2,0,0,1-.29,0A.25.25,0,0,1,65.14,4.22Zm12.64,26a.85.85,0,0,0-.51-.15.81.81,0,0,0-.71.37,1.8,1.8,0,0,0-.22,1,2.25,2.25,0,0,0,.11.77.94.94,0,0,0,.33.42.85.85,0,0,0,.51.14.8.8,0,0,0,.5-.14,1,1,0,0,0,.32-.43,2.82,2.82,0,0,0,0-1.56A.92.92,0,0,0,77.78,30.23Zm-.21,1.21a1.31,1.31,0,0,1-.11.62.19.19,0,0,1-.18.11.21.21,0,0,1-.19-.12,1.08,1.08,0,0,1-.1-.58A2,2,0,0,1,77,31a.41.41,0,0,1,.1-.21.24.24,0,0,1,.14-.05s.12,0,.19.13A1.12,1.12,0,0,1,77.57,31.44Zm-2.72,4h.72v.61H73.72v-.35l.76-.79a2.05,2.05,0,0,0,.35-.41.56.56,0,0,0,.07-.26.25.25,0,0,0-.06-.16.24.24,0,0,0-.34,0,.37.37,0,0,0-.08.23v.1h-.64v-.11a.93.93,0,0,1,.27-.67.88.88,0,0,1,.65-.25.85.85,0,0,1,.43.1.77.77,0,0,1,.31.31.83.83,0,0,1,.11.4,1.13,1.13,0,0,1-.13.5,2.47,2.47,0,0,1-.46.61Zm.73-3.34h.73v.61H74.45v-.35l.77-.79a1.93,1.93,0,0,0,.34-.41.59.59,0,0,0,.08-.26.18.18,0,0,0-.07-.15.23.23,0,0,0-.34,0,.4.4,0,0,0-.08.23v.1h-.64V31a1,1,0,0,1,.28-.68.86.86,0,0,1,.64-.25.89.89,0,0,1,.44.1.9.9,0,0,1,.42.71,1.28,1.28,0,0,1-.13.5,2.86,2.86,0,0,1-.47.61Zm-4.49,2.32.4-.77-.56-.29-.66,1.3a2.24,2.24,0,0,0-.16.36.73.73,0,0,0,0,.25.84.84,0,0,0,.24.59.87.87,0,0,0,1.21,0,.82.82,0,0,0,.25-.6.83.83,0,0,0-.68-.85Zm0,.84a.22.22,0,0,1-.07.17.2.2,0,0,1-.29,0,.25.25,0,0,1-.06-.17.21.21,0,0,1,.06-.16.2.2,0,0,1,.14-.06.19.19,0,0,1,.15.06A.19.19,0,0,1,71.13,35.28ZM57,33.48h1.77v.38l-1.13,2.31-.56-.28L58,34.1H57ZM70.68,4.4H70V4.3a1,1,0,0,1,.27-.68A.92.92,0,0,1,71,3.37a.86.86,0,0,1,.43.11.81.81,0,0,1,.31.3.83.83,0,0,1,.11.4,1.07,1.07,0,0,1-.13.5,2.15,2.15,0,0,1-.46.61l-.11.12h.72V6H70V5.67l.77-.79a2.3,2.3,0,0,0,.34-.41.56.56,0,0,0,.07-.25.21.21,0,0,0-.06-.16.24.24,0,0,0-.34,0,.43.43,0,0,0-.08.24ZM80.87,24.66a.8.8,0,0,0-.44-.24l.4-.77-.56-.28-.66,1.29a2.24,2.24,0,0,0-.16.36.78.78,0,0,0,0,.26.82.82,0,0,0,.24.58.83.83,0,0,0,.61.26.82.82,0,0,0,.6-.25.79.79,0,0,0,.25-.6A.84.84,0,0,0,80.87,24.66Zm-.4.6a.21.21,0,0,1-.07.17.19.19,0,0,1-.28,0,.21.21,0,0,1-.07-.17.23.23,0,0,1,.06-.16.2.2,0,0,1,.14-.06.18.18,0,0,1,.15.06A.21.21,0,0,1,80.47,25.26Zm-2.82,3.52h.72v.62H76.51V29l.77-.79a1.66,1.66,0,0,0,.34-.41.59.59,0,0,0,.08-.25.21.21,0,0,0-.06-.16.24.24,0,0,0-.34,0,.36.36,0,0,0-.08.24v.09h-.65v-.1a1,1,0,0,1,.27-.68.92.92,0,0,1,.65-.25.86.86,0,0,1,.43.11.74.74,0,0,1,.31.3.83.83,0,0,1,.11.4,1.1,1.1,0,0,1-.13.5,2.84,2.84,0,0,1-.46.61Zm2.19-1.89a.89.89,0,0,0-1.22.22,1.89,1.89,0,0,0-.22,1,2.25,2.25,0,0,0,.11.77.89.89,0,0,0,.33.42.85.85,0,0,0,.51.15.8.8,0,0,0,.5-.15.91.91,0,0,0,.32-.43,2.08,2.08,0,0,0,.11-.78,2,2,0,0,0-.11-.77A.8.8,0,0,0,79.84,26.89Zm-.21,1.22a1.29,1.29,0,0,1-.1.61c-.07.1-.13.12-.18.12a.24.24,0,0,1-.2-.13,1.21,1.21,0,0,1-.09-.58,2.12,2.12,0,0,1,0-.5.41.41,0,0,1,.11-.21.22.22,0,0,1,.14-.05c.05,0,.12,0,.19.13A1.35,1.35,0,0,1,79.63,28.11Zm-6.19,6.46a.87.87,0,0,1,.24.63.91.91,0,0,1-.26.66.89.89,0,0,1-.65.27.91.91,0,0,1-.59-.19.89.89,0,0,1-.33-.54l0-.11h.66l0,.05a.28.28,0,0,0,.11.13.25.25,0,0,0,.33,0,.29.29,0,0,0,.08-.21A.27.27,0,0,0,73,35,.2.2,0,0,0,72.7,35l-.12.09,0,0L72,35l.33-1.5h1.3v.62h-.8l0,.21h0A.82.82,0,0,1,73.44,34.57ZM59.88,31.1l.39-.77-.56-.28-.66,1.29a2.24,2.24,0,0,0-.16.36.73.73,0,0,0,0,.25.84.84,0,0,0,.24.59.82.82,0,0,0,.61.25.81.81,0,0,0,.6-.24.8.8,0,0,0,.25-.6.84.84,0,0,0-.24-.61A.78.78,0,0,0,59.88,31.1Zm0,.84a.25.25,0,0,1-.06.17.2.2,0,0,1-.29,0,.22.22,0,0,1-.07-.17.21.21,0,0,1,.06-.16.2.2,0,0,1,.14-.06.21.21,0,0,1,.22.22Zm2.31,2.72a.92.92,0,0,0,.13-.19.87.87,0,0,0,0-.28.76.76,0,0,0-.1-.39.78.78,0,0,0-.29-.28,1,1,0,0,0-.84,0,.59.59,0,0,0-.29.27.77.77,0,0,0-.11.39.73.73,0,0,0,.06.3,1.08,1.08,0,0,0,.11.18,1.1,1.1,0,0,0-.19.25.86.86,0,0,0-.09.39.93.93,0,0,0,.11.44.84.84,0,0,0,.32.3,1.21,1.21,0,0,0,.5.09,1,1,0,0,0,.49-.1.71.71,0,0,0,.32-.3.82.82,0,0,0,.12-.43.77.77,0,0,0-.1-.4A.78.78,0,0,0,62.22,34.66Zm-.52-.31a.18.18,0,0,1-.24,0,.21.21,0,0,1-.05-.13.17.17,0,0,1,.05-.12.16.16,0,0,1,.11-.05.17.17,0,0,1,.13.05.17.17,0,0,1,0,.12A.21.21,0,0,1,61.7,34.35Zm-.32.74a.31.31,0,0,1,.21-.07.27.27,0,0,1,.2.07.24.24,0,0,1,0,.35.35.35,0,0,1-.42,0,.2.2,0,0,1-.08-.17A.23.23,0,0,1,61.38,35.09Zm-1.5-.65.39-.77-.56-.29-.66,1.3a2.24,2.24,0,0,0-.16.36.73.73,0,0,0,0,.25.84.84,0,0,0,.24.59.82.82,0,0,0,.61.25.84.84,0,0,0,.85-.84.86.86,0,0,0-.24-.62A.83.83,0,0,0,59.88,34.44Zm0,.84a.25.25,0,0,1-.06.17.2.2,0,0,1-.29,0,.22.22,0,0,1-.07-.17.21.21,0,0,1,.06-.16.2.2,0,0,1,.14-.06.21.21,0,0,1,.22.22Zm3.71-.84.39-.77-.56-.29-.66,1.3a2.24,2.24,0,0,0-.16.36.73.73,0,0,0,0,.25.84.84,0,0,0,.24.59.82.82,0,0,0,.61.25.84.84,0,0,0,.85-.84.86.86,0,0,0-.24-.62A.83.83,0,0,0,63.62,34.44Zm0,.84a.25.25,0,0,1-.06.17.2.2,0,0,1-.29,0,.22.22,0,0,1-.07-.17.21.21,0,0,1,.06-.16.2.2,0,0,1,.14-.06.21.21,0,0,1,.22.22Zm4.47-1.42L67,36.17l-.56-.28.87-1.79h-1v-.62h1.77Zm1.67-.44h-.6L68.12,35l0,0v.55h1.05v.49h.64v-.49H70V35h-.21ZM68.89,35l.26-.39V35Zm-3.55-1.54a.85.85,0,0,0-.6.24.87.87,0,0,0,0,1.22.83.83,0,0,0,.43.23l-.4.78.57.28.66-1.3a3.8,3.8,0,0,0,.16-.36,1,1,0,0,0,0-.25.85.85,0,0,0-.25-.59A.81.81,0,0,0,65.34,33.42Zm.21.85a.21.21,0,0,1-.06.16.2.2,0,0,1-.29,0,.24.24,0,0,1,0-.32.18.18,0,0,1,.15-.07.17.17,0,0,1,.14.07A.21.21,0,0,1,65.55,34.27ZM76.83,18.64l-.11.12h.72v.62H75.59V19l.76-.78a2.35,2.35,0,0,0,.35-.42.53.53,0,0,0,.07-.25.23.23,0,0,0-.06-.16.24.24,0,0,0-.34,0,.37.37,0,0,0-.08.23v.09h-.64v-.1a.93.93,0,0,1,.27-.67.88.88,0,0,1,.65-.25.85.85,0,0,1,.43.1.81.81,0,0,1,.31.3.87.87,0,0,1,.11.41,1.13,1.13,0,0,1-.13.5A2.28,2.28,0,0,1,76.83,18.64Zm-2.14-4.88a1.76,1.76,0,0,0-.22,1,2.14,2.14,0,0,0,.11.76,1,1,0,0,0,.33.43.93.93,0,0,0,.51.14.87.87,0,0,0,.5-.14,1,1,0,0,0,.32-.43,2.37,2.37,0,0,0,.11-.79,2.29,2.29,0,0,0-.11-.77,1,1,0,0,0-.33-.44.93.93,0,0,0-.51-.14A.81.81,0,0,0,74.69,13.76Zm.91.39a1.12,1.12,0,0,1,.1.6,1.31,1.31,0,0,1-.11.62.19.19,0,0,1-.18.11s-.12,0-.19-.13a1,1,0,0,1-.1-.57,2.05,2.05,0,0,1,0-.51.34.34,0,0,1,.1-.2.19.19,0,0,1,.14-.05S75.53,14,75.6,14.15ZM70.92,2.75a.79.79,0,0,0,.6-.25.79.79,0,0,0,.25-.6.84.84,0,0,0-.24-.61.79.79,0,0,0-.44-.23l.4-.78L70.93,0l-.66,1.29a1.94,1.94,0,0,0-.16.37.69.69,0,0,0,0,.25.82.82,0,0,0,.24.58A.82.82,0,0,0,70.92,2.75Zm-.21-.85a.24.24,0,0,1,.06-.17.2.2,0,0,1,.14-.06.19.19,0,0,1,.15.06.22.22,0,0,1,.07.17.2.2,0,0,1-.07.16.19.19,0,0,1-.29,0A.23.23,0,0,1,70.71,1.9ZM72.8,16.69,72.14,18a1.45,1.45,0,0,0-.16.37.69.69,0,0,0,0,.25.8.8,0,0,0,.24.58.85.85,0,0,0,1.46-.59.82.82,0,0,0-.68-.84l.4-.77Zm.2,1.9a.19.19,0,0,1-.07.16.18.18,0,0,1-.29,0,.21.21,0,0,1-.06-.16.25.25,0,0,1,.06-.17.2.2,0,0,1,.14-.06.18.18,0,0,1,.15.07A.19.19,0,0,1,73,18.59ZM76.53,10l-.66,1.29a2.24,2.24,0,0,0-.16.36.73.73,0,0,0,0,.25.84.84,0,0,0,.24.59.83.83,0,0,0,.62.25.84.84,0,0,0,.84-.84.84.84,0,0,0-.24-.61.78.78,0,0,0-.43-.24l.39-.77Zm.2,1.89a.25.25,0,0,1-.06.17.2.2,0,0,1-.29,0,.26.26,0,0,1-.07-.17.21.21,0,0,1,.06-.16.22.22,0,0,1,.3,0A.21.21,0,0,1,76.73,11.91Zm-2.91,3.4-.11.11h.73V16H72.58v-.36l.77-.78a2.6,2.6,0,0,0,.34-.41.63.63,0,0,0,.08-.26.2.2,0,0,0-.07-.16.24.24,0,0,0-.34,0,.32.32,0,0,0-.07.23v.1h-.64v-.11a1,1,0,0,1,.28-.67.87.87,0,0,1,.65-.25.88.88,0,0,1,.43.1.86.86,0,0,1,.42.71,1.28,1.28,0,0,1-.13.5A2.86,2.86,0,0,1,73.82,15.31ZM71,20.91a.84.84,0,0,0,.24.61.8.8,0,0,0,.44.24l-.4.77.56.28.66-1.29a1.59,1.59,0,0,0,.16-.36.73.73,0,0,0,0-.25.84.84,0,0,0-.24-.59.82.82,0,0,0-.61-.26.85.85,0,0,0-.85.85Zm.64,0a.26.26,0,0,1,.07-.17.2.2,0,0,1,.15-.06.22.22,0,0,1,.14.06.25.25,0,0,1,.06.17.23.23,0,0,1-.06.16.2.2,0,0,1-.29,0A.2.2,0,0,1,71.67,20.92Zm2,1.86a1,1,0,0,1-.59-.2.93.93,0,0,1-.32-.53l0-.12h.67l0,.06a.37.37,0,0,0,.12.13.27.27,0,0,0,.33,0,.32.32,0,0,0,0-.42.2.2,0,0,0-.26-.05.35.35,0,0,0-.12.1l0,0L73,21.63l.33-1.5h1.3v.61h-.8l0,.22h0a.83.83,0,0,1,.62.25,1,1,0,0,1,0,1.3A.86.86,0,0,1,73.69,22.78Zm1.48-12.59a.93.93,0,0,0-.51-.14.81.81,0,0,0-.71.37,1.8,1.8,0,0,0-.22,1,2.25,2.25,0,0,0,.11.77.94.94,0,0,0,.33.42.85.85,0,0,0,.51.14.8.8,0,0,0,.5-.14,1,1,0,0,0,.32-.43,2.31,2.31,0,0,0,.11-.78,2.31,2.31,0,0,0-.11-.78A1,1,0,0,0,75.17,10.19ZM75,11.41a1.31,1.31,0,0,1-.11.62.19.19,0,0,1-.18.11.21.21,0,0,1-.19-.12,1.08,1.08,0,0,1-.1-.58,2,2,0,0,1,.05-.5.41.41,0,0,1,.1-.21.24.24,0,0,1,.14-.05s.12,0,.19.13A1.12,1.12,0,0,1,75,11.41ZM73.38,25.87a.79.79,0,0,0,.25-.6.84.84,0,0,0-.24-.61.81.81,0,0,0-.43-.24l.39-.77-.56-.28-.66,1.29A2.24,2.24,0,0,0,72,25a.78.78,0,0,0,0,.26.82.82,0,0,0,.24.58.83.83,0,0,0,.61.26A.82.82,0,0,0,73.38,25.87Zm-.81-.61a.23.23,0,0,1,.06-.16.2.2,0,0,1,.14-.06.21.21,0,0,1,.16.06.25.25,0,0,1,.06.16.24.24,0,0,1-.06.17.2.2,0,0,1-.29,0A.21.21,0,0,1,72.57,25.26ZM77.76,22l-.11.12h.72v.62H76.51v-.36l.77-.78a1.85,1.85,0,0,0,.34-.42.56.56,0,0,0,.08-.25.21.21,0,0,0-.06-.16.25.25,0,0,0-.34,0,.36.36,0,0,0-.08.24v.09h-.65V21a.93.93,0,0,1,.27-.67.89.89,0,0,1,.65-.26.86.86,0,0,1,.43.11.81.81,0,0,1,.31.3.86.86,0,0,1,.11.4,1.13,1.13,0,0,1-.13.51A2.83,2.83,0,0,1,77.76,22ZM72.92,6.71,71.85,8.3v.57h1v.49h.64V8.87h.22V8.25h-.22V6.71Zm-.3,1.54.26-.38v.38Zm4.07.48a.29.29,0,0,0,.08-.22.27.27,0,0,0-.07-.2.21.21,0,0,0-.27-.05.31.31,0,0,0-.11.09l0,0-.52-.11.32-1.51h1.3v.62h-.8l0,.22h0a.81.81,0,0,1,.61.25.88.88,0,0,1,.25.64.9.9,0,0,1-.27.66,1,1,0,0,1-1.24.07.93.93,0,0,1-.32-.53l0-.12h.66l0,.05a.36.36,0,0,0,.11.13A.26.26,0,0,0,76.69,8.73Zm-.36,14v-.49h.21v-.62h-.21V20.06h-.61l-1.06,1.59,0,0v.55h1v.49Zm-.91-1.11.27-.39v.39Zm-.74,4.54.66-1.29c.08-.17.13-.28.16-.36a1.09,1.09,0,0,0,0-.26.83.83,0,0,0-.25-.58.82.82,0,0,0-.61-.26.86.86,0,0,0-.6.25.81.81,0,0,0-.24.6.84.84,0,0,0,.24.61.78.78,0,0,0,.43.24l-.4.77Zm-.2-1.89a.24.24,0,0,1,.06-.17.2.2,0,0,1,.15-.06.2.2,0,0,1,.14.06.25.25,0,0,1,.06.17.23.23,0,0,1-.06.16.21.21,0,0,1-.29,0A.25.25,0,0,1,74.48,24.26Zm-2.66-9.77a.63.63,0,0,0,.08-.26.2.2,0,0,0-.07-.16.24.24,0,0,0-.34,0,.32.32,0,0,0-.07.23v.1h-.64v-.11a1,1,0,0,1,.28-.67.87.87,0,0,1,.65-.25.88.88,0,0,1,.43.1.86.86,0,0,1,.42.71,1.28,1.28,0,0,1-.13.5,2.86,2.86,0,0,1-.47.61l-.11.11h.73V16H70.71v-.36l.77-.78A2.6,2.6,0,0,0,71.82,14.49ZM73,11.15a.59.59,0,0,0,.08-.26.21.21,0,0,0-.07-.16.24.24,0,0,0-.34,0,.37.37,0,0,0-.08.23v.1H71.9V11a1,1,0,0,1,.28-.68.86.86,0,0,1,.64-.25.89.89,0,0,1,.44.1.9.9,0,0,1,.42.71,1.15,1.15,0,0,1-.14.5,2.47,2.47,0,0,1-.46.61l-.11.12h.73v.61H71.84v-.35l.77-.79A1.93,1.93,0,0,0,73,11.15ZM71.87,29.49l.66-1.29a1.61,1.61,0,0,0,.16-.37.69.69,0,0,0,0-.25.85.85,0,0,0-.85-.84.8.8,0,0,0-.6.25.82.82,0,0,0-.25.6.84.84,0,0,0,.24.61.73.73,0,0,0,.44.23l-.4.78Zm-.2-1.9a.24.24,0,0,1,.07-.16.21.21,0,0,1,.15-.07.23.23,0,0,1,.14.07.23.23,0,0,1,.06.16.25.25,0,0,1-.06.17.21.21,0,0,1-.29,0A.22.22,0,0,1,71.67,27.59Zm2.55-10.8h1.3v.61h-.8l0,.22h0a.85.85,0,0,1,.61.25.89.89,0,0,1,.24.64.93.93,0,0,1-.26.66.89.89,0,0,1-.65.27.91.91,0,0,1-.59-.19.92.92,0,0,1-.33-.54l0-.12h.66l0,.06a.28.28,0,0,0,.11.13.26.26,0,0,0,.33,0,.29.29,0,0,0,.08-.21.3.3,0,0,0-.07-.21.22.22,0,0,0-.27-.05.53.53,0,0,0-.12.1l0,0-.52-.12ZM76.66,4.06h-1V3.43h1.77v.38L76.35,6.12l-.56-.27Zm-2,24.52v-.1h.64l0,.08a.35.35,0,0,0,.1.22.29.29,0,0,0,.38,0,.25.25,0,0,0,.08-.18.24.24,0,0,0-.11-.2.56.56,0,0,0-.35-.1h-.1v-.58h.09a.53.53,0,0,0,.22-.05.18.18,0,0,0,.08-.07.16.16,0,0,0,0-.09.12.12,0,0,0,0-.09.18.18,0,0,0-.11,0,.17.17,0,0,0-.12,0,.14.14,0,0,0-.07.1l0,.07h-.62l0-.11A.77.77,0,0,1,75,27a.82.82,0,0,1,.61-.26.78.78,0,0,1,.57.22.68.68,0,0,1,.23.51.63.63,0,0,1-.11.35.53.53,0,0,1-.12.14.76.76,0,0,1,.21.19.72.72,0,0,1,.14.44.79.79,0,0,1-.27.61.92.92,0,0,1-.67.26.89.89,0,0,1-.64-.24A1,1,0,0,1,74.67,28.58Zm2.79-4.74-1.12,2.31-.56-.27.87-1.79h-.94v-.63h1.76ZM74.79,4.06h-1V3.43h1.77v.38L74.48,6.12l-.56-.27Zm3.36,3.68h-.64v-.1A1,1,0,0,1,77.79,7a.86.86,0,0,1,.64-.25.89.89,0,0,1,.44.1.81.81,0,0,1,.3.31.75.75,0,0,1,.12.4,1.15,1.15,0,0,1-.14.5,2.47,2.47,0,0,1-.46.61l-.11.12h.73v.61H77.45V9l.77-.79a1.93,1.93,0,0,0,.34-.41.59.59,0,0,0,.08-.25.19.19,0,0,0-.07-.16.23.23,0,0,0-.34,0,.4.4,0,0,0-.08.23ZM73,2.05A.3.3,0,0,0,73,1.84.28.28,0,0,0,73,1.63a.21.21,0,0,0-.27,0,.47.47,0,0,0-.12.09l0,.05L72,1.6,72.35.09h1.3V.71h-.8l0,.22h0a.81.81,0,0,1,.61.25.89.89,0,0,1,.24.64.93.93,0,0,1-.26.66.89.89,0,0,1-.65.27.92.92,0,0,1-.59-.2A.9.9,0,0,1,71.85,2l0-.12h.66l0,.05a.31.31,0,0,0,.11.14A.27.27,0,0,0,73,2.05Zm.35,1.47a.9.9,0,0,0-.51-.15.83.83,0,0,0-.71.37,1.8,1.8,0,0,0-.22,1,2,2,0,0,0,.11.77A.89.89,0,0,0,72.3,6a1,1,0,0,0,1,0,.92.92,0,0,0,.31-.44,2.06,2.06,0,0,0,.12-.78A2.21,2.21,0,0,0,73.64,4,.9.9,0,0,0,73.31,3.52Zm-.22,1.22a1.29,1.29,0,0,1-.1.61.21.21,0,0,1-.18.12.24.24,0,0,1-.2-.13,1.21,1.21,0,0,1-.09-.58,2.12,2.12,0,0,1,0-.5.41.41,0,0,1,.11-.21.24.24,0,0,1,.14,0s.12,0,.19.13A1.35,1.35,0,0,1,73.09,4.74Zm1.57,4.68a.84.84,0,0,0,.84-.84A.84.84,0,0,0,75.26,8a.78.78,0,0,0-.43-.24L75.22,7l-.56-.28L74,8a2.24,2.24,0,0,0-.16.36.73.73,0,0,0,0,.25.84.84,0,0,0,.24.59A.83.83,0,0,0,74.66,9.42Zm-.22-.85a.23.23,0,0,1,.06-.16.22.22,0,0,1,.3,0,.21.21,0,0,1,.06.16.24.24,0,0,1-.06.17.2.2,0,0,1-.29,0A.26.26,0,0,1,74.44,8.57ZM67.92,32.79a.84.84,0,0,0,.84-.84.84.84,0,0,0-.24-.61.78.78,0,0,0-.43-.24l.39-.77-.56-.28-.66,1.29a2.24,2.24,0,0,0-.16.36,1.09,1.09,0,0,0,0,.25.81.81,0,0,0,.25.59A.79.79,0,0,0,67.92,32.79Zm-.21-.85a.21.21,0,0,1,.06-.16.17.17,0,0,1,.14-.06.2.2,0,0,1,.15.06.21.21,0,0,1,.06.16.25.25,0,0,1-.06.17.2.2,0,0,1-.29,0A.25.25,0,0,1,67.71,31.94Zm-.22-18.49h.84V16h-.65v-2h-.57ZM70.1,6.77h1.77v.38L70.73,9.46l-.56-.27L71,7.39H70.1Zm4.56,20.41-1.12,2.31L73,29.22l.88-1.79H72.9V26.8h1.77ZM69,13.45h1.77v.38L69.6,16.14,69,15.86l.87-1.79H69Zm5.47,19.28H72.58v-.35l.77-.79a1.93,1.93,0,0,0,.34-.41.59.59,0,0,0,.08-.26.18.18,0,0,0-.07-.15.23.23,0,0,0-.34,0,.33.33,0,0,0-.07.23v.1h-.64V31a1,1,0,0,1,.28-.68.87.87,0,0,1,.65-.25.88.88,0,0,1,.43.1.9.9,0,0,1,.42.71,1.28,1.28,0,0,1-.13.5,2.86,2.86,0,0,1-.47.61l-.11.12h.73ZM68.87,19.47l-.56-.27.87-1.79h-1v-.62H70v.38ZM71,19.38h.64v-.49h.21v-.62h-.21V16.73h-.6L70,18.31l0,0v.55h1Zm-.26-1.11.26-.39v.39Z" fill="#c5b358"/></svg>